<svg width="766" height="598" viewBox="0 0 766 598" fill="none" xmlns="http://www.w3.org/2000/svg">
<g clip-path="url(#clip0_276_1682)">
<path d="M761 493.899H382.033C380.708 493.898 379.437 493.288 378.5 492.204C377.563 491.119 377.035 489.649 377.034 488.116V5.78337C377.035 4.25006 377.563 2.78006 378.5 1.69585C379.437 0.611634 380.708 0.00175415 382.033 0H761C762.326 0.00175415 763.597 0.611634 764.534 1.69585C765.471 2.78006 765.998 4.25006 766 5.78337V488.116C765.998 489.649 765.471 491.119 764.534 492.204C763.597 493.288 762.326 493.898 761 493.899ZM382.033 2.31335C381.238 2.31435 380.476 2.68026 379.913 3.3308C379.351 3.98134 379.035 4.86337 379.034 5.78337V488.116C379.035 489.036 379.351 489.918 379.913 490.569C380.476 491.219 381.238 491.585 382.033 491.586H761C761.796 491.585 762.558 491.219 763.121 490.569C763.683 489.918 763.999 489.036 764 488.116V5.78337C763.999 4.86337 763.683 3.98134 763.121 3.3308C762.558 2.68026 761.796 2.31435 761 2.31335H382.033Z" fill="#CAC8C8"/>
<path d="M545.519 183.911H451.527C450.202 183.909 448.931 183.299 447.994 182.215C447.057 181.131 446.529 179.661 446.528 178.128V69.4004C446.529 67.8671 447.057 66.3971 447.994 65.3129C448.931 64.2286 450.202 63.6188 451.527 63.617H545.519C546.845 63.6188 548.115 64.2286 549.053 65.3129C549.99 66.3971 550.517 67.8671 550.519 69.4004V178.128C550.517 179.661 549.99 181.131 549.053 182.215C548.115 183.299 546.845 183.909 545.519 183.911ZM451.527 65.9304C450.732 65.9314 449.97 66.2973 449.407 66.9478C448.845 67.5983 448.529 68.4804 448.528 69.4004V178.128C448.529 179.048 448.845 179.93 449.407 180.58C449.97 181.231 450.732 181.597 451.527 181.598H545.519C546.314 181.597 547.077 181.231 547.639 180.58C548.202 179.93 548.518 179.048 548.519 178.128V69.4004C548.518 68.4804 548.202 67.5983 547.639 66.9478C547.077 66.2973 546.314 65.9314 545.519 65.9304H451.527Z" fill="#F2F2F2"/>
<path d="M518.522 197.213H424.53C423.337 197.211 422.193 196.662 421.35 195.687C420.506 194.711 420.032 193.388 420.03 192.008V83.2805C420.032 81.9005 420.506 80.5775 421.35 79.6017C422.193 78.6259 423.337 78.077 424.53 78.0754H518.522C519.715 78.077 520.858 78.6259 521.702 79.6017C522.545 80.5775 523.02 81.9005 523.021 83.2805V192.008C523.02 193.388 522.545 194.711 521.702 195.687C520.858 196.662 519.715 197.211 518.522 197.213Z" fill="#FD7427"/>
<path d="M718.504 250.42H424.53C423.337 250.42 422.192 249.871 421.348 248.895C420.504 247.919 420.03 246.595 420.03 245.215C420.03 243.834 420.504 242.51 421.348 241.534C422.192 240.558 423.337 240.01 424.53 240.01H718.504C719.698 240.01 720.842 240.558 721.686 241.534C722.53 242.51 723.004 243.834 723.004 245.215C723.004 246.595 722.53 247.919 721.686 248.895C720.842 249.871 719.698 250.42 718.504 250.42Z" fill="#CCCCCC"/>
<path d="M647.51 286.277H424.53C423.337 286.277 422.192 285.728 421.348 284.752C420.504 283.776 420.03 282.452 420.03 281.072C420.03 279.691 420.504 278.367 421.348 277.391C422.192 276.415 423.337 275.867 424.53 275.867H647.51C648.704 275.867 649.848 276.415 650.692 277.391C651.536 278.367 652.01 279.691 652.01 281.072C652.01 282.452 651.536 283.776 650.692 284.752C649.848 285.728 648.704 286.277 647.51 286.277Z" fill="#CCCCCC"/>
<path d="M717.504 118.559H587.515C586.322 118.559 585.178 118.011 584.334 117.034C583.49 116.058 583.016 114.734 583.016 113.354C583.016 111.973 583.49 110.65 584.334 109.673C585.178 108.697 586.322 108.149 587.515 108.149H717.504C718.697 108.149 719.842 108.697 720.686 109.673C721.53 110.65 722.004 111.973 722.004 113.354C722.004 114.734 721.53 116.058 720.686 117.034C719.842 118.011 718.697 118.559 717.504 118.559Z" fill="#CCCCCC"/>
<path d="M685.063 154.416H587.515C586.322 154.416 585.178 153.867 584.334 152.891C583.49 151.915 583.016 150.591 583.016 149.211C583.016 147.83 583.49 146.506 584.334 145.53C585.178 144.554 586.322 144.006 587.515 144.006H685.063C686.257 144.006 687.401 144.554 688.245 145.53C689.089 146.506 689.563 147.83 689.563 149.211C689.563 150.591 689.089 151.915 688.245 152.891C687.401 153.867 686.257 154.416 685.063 154.416Z" fill="#CCCCCC"/>
<path d="M718.504 322.133H424.53C423.337 322.133 422.192 321.585 421.348 320.609C420.504 319.633 420.03 318.309 420.03 316.928C420.03 315.548 420.504 314.224 421.348 313.248C422.192 312.272 423.337 311.723 424.53 311.723H718.504C719.698 311.723 720.842 312.272 721.686 313.248C722.53 314.224 723.004 315.548 723.004 316.928C723.004 318.309 722.53 319.633 721.686 320.609C720.842 321.585 719.698 322.133 718.504 322.133Z" fill="#CCCCCC"/>
<path d="M647.51 357.99H424.53C423.337 357.99 422.192 357.442 421.348 356.466C420.504 355.49 420.03 354.166 420.03 352.785C420.03 351.405 420.504 350.081 421.348 349.105C422.192 348.129 423.337 347.58 424.53 347.58H647.51C648.704 347.58 649.848 348.129 650.692 349.105C651.536 350.081 652.01 351.405 652.01 352.785C652.01 354.166 651.536 355.49 650.692 356.466C649.848 357.442 648.704 357.99 647.51 357.99Z" fill="#CCCCCC"/>
<path d="M718.504 393.847H424.53C423.337 393.847 422.192 393.299 421.348 392.323C420.504 391.347 420.03 390.023 420.03 388.642C420.03 387.262 420.504 385.938 421.348 384.962C422.192 383.985 423.337 383.437 424.53 383.437H718.504C719.698 383.437 720.842 383.985 721.686 384.962C722.53 385.938 723.004 387.262 723.004 388.642C723.004 390.023 722.53 391.347 721.686 392.323C720.842 393.299 719.698 393.847 718.504 393.847Z" fill="#CCCCCC"/>
<path d="M718.504 429.704H424.53C423.337 429.704 422.192 429.156 421.348 428.18C420.504 427.203 420.03 425.879 420.03 424.499C420.03 423.119 420.504 421.795 421.348 420.818C422.192 419.842 423.337 419.294 424.53 419.294H718.504C719.698 419.294 720.842 419.842 721.686 420.818C722.53 421.795 723.004 423.119 723.004 424.499C723.004 425.879 722.53 427.203 721.686 428.18C720.842 429.156 719.698 429.704 718.504 429.704Z" fill="#CCCCCC"/>
<path d="M481.454 449.149H266.473C265.147 449.147 263.876 448.537 262.939 447.453C262.002 446.369 261.475 444.899 261.473 443.365V289.528C261.475 287.995 262.002 286.525 262.939 285.44C263.876 284.356 265.147 283.746 266.473 283.745H481.454C482.779 283.746 484.05 284.356 484.987 285.44C485.925 286.525 486.452 287.995 486.453 289.528V443.365C486.452 444.899 485.925 446.369 484.987 447.453C484.05 448.537 482.779 449.147 481.454 449.149Z" fill="white"/>
<path d="M481.454 449.149H266.473C265.147 449.147 263.876 448.537 262.939 447.453C262.002 446.369 261.475 444.899 261.473 443.365V289.528C261.475 287.995 262.002 286.525 262.939 285.44C263.876 284.356 265.147 283.746 266.473 283.745H481.454C482.779 283.746 484.05 284.356 484.987 285.44C485.925 286.525 486.452 287.995 486.453 289.528V443.365C486.452 444.899 485.925 446.369 484.987 447.453C484.05 448.537 482.779 449.147 481.454 449.149ZM266.473 286.058C265.677 286.059 264.915 286.425 264.353 287.075C263.79 287.726 263.474 288.608 263.473 289.528V443.365C263.474 444.285 263.79 445.168 264.353 445.818C264.915 446.469 265.677 446.834 266.473 446.835H481.454C482.249 446.834 483.012 446.469 483.574 445.818C484.136 445.168 484.453 444.285 484.454 443.365V289.528C484.453 288.608 484.136 287.726 483.574 287.075C483.012 286.425 482.249 286.059 481.454 286.058H266.473Z" fill="#CAC8C8"/>
<path d="M438.958 353.723H308.969C307.776 353.723 306.631 353.175 305.787 352.199C304.944 351.223 304.469 349.899 304.469 348.518C304.469 347.138 304.944 345.814 305.787 344.838C306.631 343.862 307.776 343.313 308.969 343.313H438.958C440.151 343.313 441.296 343.862 442.139 344.838C442.983 345.814 443.457 347.138 443.457 348.518C443.457 349.899 442.983 351.223 442.139 352.199C441.296 353.175 440.151 353.723 438.958 353.723Z" fill="#CCCCCC"/>
<path d="M438.958 389.58H308.969C307.776 389.58 306.631 389.032 305.787 388.056C304.944 387.08 304.469 385.756 304.469 384.375C304.469 382.995 304.944 381.671 305.787 380.695C306.631 379.719 307.776 379.17 308.969 379.17H438.958C440.151 379.17 441.296 379.719 442.139 380.695C442.983 381.671 443.457 382.995 443.457 384.375C443.457 385.756 442.983 387.08 442.139 388.056C441.296 389.032 440.151 389.58 438.958 389.58Z" fill="#CCCCCC"/>
<path d="M230.315 583.994H242.574L248.405 529.297L230.313 529.298L230.315 583.994Z" fill="#A0616A"/>
<path d="M227.188 579.364L251.33 579.363H251.331C255.411 579.363 259.324 581.238 262.209 584.576C265.095 587.913 266.716 592.44 266.716 597.16V597.738L227.189 597.74L227.188 579.364Z" fill="#333333"/>
<path d="M134.864 577.855L146.985 579.974L159.82 526.902L143.93 523.774L134.864 577.855Z" fill="#A0616A"/>
<path d="M132.37 572.737L156.241 576.911L156.242 576.911C160.277 577.617 163.904 580.147 166.325 583.946C168.747 587.745 169.764 592.501 169.155 597.168L169.08 597.74L129.997 590.907L132.37 572.737Z" fill="#333333"/>
<path d="M172.661 312.93L186.272 317.055L185.367 342.582L185.255 389.059C186.596 390.132 187.623 391.651 188.202 393.414C188.781 395.178 188.883 397.103 188.496 398.935C188.108 400.767 187.249 402.419 186.031 403.674C184.814 404.929 183.296 405.727 181.678 405.962C180.061 406.197 178.419 405.858 176.971 404.991C175.523 404.124 174.337 402.768 173.57 401.104C172.803 399.44 172.49 397.545 172.674 395.671C172.857 393.797 173.528 392.032 174.598 390.608L170.416 343.961L172.661 312.93Z" fill="#A0616A"/>
<path d="M170.292 283.691C170.367 281.224 171.055 278.834 172.273 276.807C173.491 274.78 175.188 273.202 177.16 272.261C179.007 271.305 181.055 270.994 183.052 271.365C185.05 271.737 186.91 272.775 188.405 274.353C189.479 275.463 190.331 276.831 190.901 278.361C191.471 279.892 191.746 281.547 191.706 283.213C191.742 298.167 188.824 319.965 188.794 320.183L188.748 320.529L168.853 328.279L170.292 283.691Z" fill="#FD7427"/>
<path d="M205.865 326.141L236.295 317.029L250.361 371.829L250.861 575.982L227.591 575.814L217.864 410.578L155.869 563.259L130.872 559.789L185.367 396.12C185.367 396.12 182.367 367.203 191.866 352.744L189.866 337.708L205.865 326.141Z" fill="#333333"/>
<path d="M185.347 339.775C184.921 339.177 184.612 338.48 184.441 337.731C184.269 336.982 184.239 336.2 184.352 335.436L170.472 287.267C169.824 285.015 169.755 282.595 170.274 280.298C170.792 278.002 171.876 275.93 173.394 274.333L179.419 267.997L183.503 249.103L206.972 255.739L205.038 264.686L215.66 262.453L238.032 320.092L191.269 341.714L188.965 341.756C188.273 341.758 187.589 341.581 186.963 341.238C186.337 340.895 185.785 340.395 185.347 339.775Z" fill="#FD7427"/>
<path d="M217.922 299.105L231.331 294.175L242.362 316.309L263.744 355.658C265.373 355.736 266.943 356.384 268.247 357.516C269.551 358.649 270.527 360.212 271.046 362C271.565 363.788 271.602 365.717 271.153 367.53C270.704 369.343 269.79 370.956 268.531 372.155C267.273 373.354 265.729 374.083 264.105 374.245C262.48 374.407 260.852 373.995 259.434 373.063C258.016 372.131 256.877 370.723 256.166 369.026C255.455 367.328 255.207 365.421 255.453 363.557L230.363 326.719L217.922 299.105Z" fill="#A0616A"/>
<path d="M202.408 275.858C201.332 273.726 200.809 271.281 200.901 268.815C200.994 266.349 201.699 263.966 202.931 261.951C204.051 260.002 205.638 258.474 207.498 257.553C209.358 256.632 211.409 256.359 213.401 256.767C214.822 257.041 216.174 257.67 217.363 258.611C218.552 259.552 219.55 260.781 220.286 262.214C227.226 274.83 234.832 295.057 234.908 295.259L235.028 295.581L221.795 314.432L202.408 275.858Z" fill="#FD7427"/>
<path d="M200.867 245.587C211.165 245.587 219.514 235.929 219.514 224.016C219.514 212.103 211.165 202.446 200.867 202.446C190.568 202.446 182.219 212.103 182.219 224.016C182.219 235.929 190.568 245.587 200.867 245.587Z" fill="#A0616A"/>
<path d="M167.913 214.917C177.833 214.917 185.875 205.615 185.875 194.139C185.875 182.664 177.833 173.361 167.913 173.361C157.993 173.361 149.951 182.664 149.951 194.139C149.951 205.615 157.993 214.917 167.913 214.917Z" fill="#333333"/>
<path d="M152.42 211.345C154.744 213.289 157.438 214.56 160.275 215.053C163.111 215.546 166.009 215.245 168.725 214.177C171.44 213.109 173.896 211.304 175.885 208.913C177.874 206.522 179.339 203.615 180.158 200.435C179.848 203.285 179.031 206.029 177.758 208.496C176.485 210.962 174.783 213.096 172.761 214.763C170.739 216.43 168.44 217.594 166.01 218.182C163.579 218.77 161.07 218.768 158.64 218.177C156.21 217.586 153.912 216.419 151.892 214.749C149.871 213.079 148.172 210.942 146.902 208.474C145.631 206.006 144.817 203.261 144.51 200.41C144.203 197.56 144.41 194.667 145.119 191.914C144.716 195.612 145.182 199.368 146.466 202.787C147.751 206.206 149.807 209.162 152.42 211.345Z" fill="#333333"/>
<path d="M223.306 211.368C220.17 204.874 218.971 202.161 214.927 198.213C211.352 194.72 206.954 193.695 203.407 197.004C199.211 194.906 194.542 194.431 190.093 195.648C185.645 196.864 181.654 199.709 178.714 203.758C175.775 207.807 174.042 212.846 173.775 218.124C173.508 223.403 174.719 228.641 177.23 233.06C179.741 237.478 183.417 240.842 187.712 242.652C192.008 244.461 196.693 244.619 201.072 243.103C205.452 241.587 209.291 238.478 212.021 234.236C214.751 229.995 216.225 224.848 216.225 219.56C216.221 218.631 216.173 217.704 216.08 216.781C219.163 216.28 220.223 211.869 223.306 211.368Z" fill="#333333"/>
<path d="M381.967 598H0.999913C0.734719 598 0.480387 597.878 0.292867 597.661C0.105347 597.444 0 597.15 0 596.843C0 596.537 0.105347 596.242 0.292867 596.025C0.480387 595.809 0.734719 595.687 0.999913 595.687H381.967C382.232 595.687 382.486 595.809 382.674 596.025C382.861 596.242 382.967 596.537 382.967 596.843C382.967 597.15 382.861 597.444 382.674 597.661C382.486 597.878 382.232 598 381.967 598Z" fill="#CCCCCC"/>
</g>
<defs>
<clipPath id="clip0_276_1682">
<rect width="766" height="598" fill="white"/>
</clipPath>
</defs>
</svg>
