<svg width="31" height="35" viewBox="0 0 31 35" fill="none" xmlns="http://www.w3.org/2000/svg">
<g clip-path="url(#clip0_277_1913)">
<path d="M30.2148 27.5641C29.961 27.8456 29.6977 28.1214 29.4249 28.3907C25.7605 32.0078 21.3971 34.5 16.2148 34.5C11.7358 34.5 6.97986 32.5118 3.54376 29.7723C3.54157 29.7709 3.54011 29.7694 3.53794 29.7672C3.08208 29.4044 2.64081 29.0185 2.21484 28.6109C2.22286 28.5476 2.23162 28.485 2.24109 28.423C2.30091 28.0054 2.36729 27.6073 2.44167 27.2408C3.05071 24.237 11.0644 21.0835 11.273 21.0014C11.2759 21.0007 11.2773 21 11.2773 21C11.2773 21 12.3087 24.7526 16.728 24.7043C19.7381 24.6719 19.1546 21 19.1546 21C19.1546 21 19.1911 21.0072 19.2596 21.0216C20.129 21.2038 26.1653 22.5127 28.5468 24.299C29.2725 24.8433 29.7932 26.0025 30.1674 27.3848C30.1835 27.4439 30.1988 27.5043 30.2148 27.5641Z" fill="#CAC8C8"/>
<circle cx="17.687" cy="16.7213" r="9.47541" fill="#3C4442"/>
<path d="M25.4903 21.1803C25.4903 23.9508 22.1215 26.1967 17.9658 26.1967C13.81 26.1967 10.4412 23.9508 10.4412 21.1803C10.4412 18.4099 11.3018 22.8525 15.4576 22.8525C19.6133 22.8525 25.4903 18.4099 25.4903 21.1803Z" fill="#F3F3F3"/>
</g>
<defs>
<clipPath id="clip0_277_1913">
<rect width="30.2148" height="34.5" fill="white"/>
</clipPath>
</defs>
</svg>
