<svg width="16" height="16" viewBox="0 0 16 16" fill="none" xmlns="http://www.w3.org/2000/svg">
<path d="M27 8C27 8.41993 26.8332 8.82265 26.5363 9.11959C26.2393 9.41652 25.8366 9.58333 25.4167 9.58333H9.58333V25.4167C9.58333 25.8366 9.41652 26.2393 9.11959 26.5363C8.82265 26.8332 8.41993 27 8 27C7.58007 27 7.17735 26.8332 6.88041 26.5363C6.58348 26.2393 6.41667 25.8366 6.41667 25.4167V9.58333H-9.41667C-9.83659 9.58333 -10.2393 9.41652 -10.5363 9.11959C-10.8332 8.82265 -11 8.41993 -11 8C-11 7.58007 -10.8332 7.17735 -10.5363 6.88041C-10.2393 6.58348 -9.83659 6.41667 -9.41667 6.41667H6.41667V-9.41667C6.41667 -9.83659 6.58348 -10.2393 6.88041 -10.5363C7.17735 -10.8332 7.58007 -11 8 -11C8.41993 -11 8.82265 -10.8332 9.11959 -10.5363C9.41652 -10.2393 9.58333 -9.83659 9.58333 -9.41667V6.41667H25.4167C25.8366 6.41667 26.2393 6.58348 26.5363 6.88041C26.8332 7.17735 27 7.58007 27 8Z" fill="#333333"/>
</svg>
